<?xml version="1.0" encoding="utf-8"?>
<!-- Generator: Adobe Illustrator 26.0.1, SVG Export Plug-In . SVG Version: 6.00 Build 0)  -->
<svg version="1.1" id="Layer_1" xmlns="http://www.w3.org/2000/svg" xmlns:xlink="http://www.w3.org/1999/xlink" x="0px" y="0px"
	 viewBox="0 0 448 448" style="enable-background:new 0 0 448 448;" xml:space="preserve">
<style type="text/css">
	.st0{fill:#363089;}
	.st1{fill:#FF7D1D;}
</style>
<circle class="st0" cx="224" cy="224" r="224"/>
<path class="st1" d="M93.5,130.5L223.8,0.2l130.3,130.3c24.8,24.8,38.7,58.4,38.7,93.5s-13.9,68.7-38.7,93.5L223.8,447.8L93.5,317.5
	c-24.8-24.8-38.7-58.4-38.7-93.5S68.7,155.3,93.5,130.5z"/>
<polygon class="st0" points="242.3,154 242.3,154 195.7,154 195.7,200.7 242.3,200.7 242.3,246.6 242.3,246.6 242.3,294 289,294 
	289,246.6 289,246.6 289,200.7 289,199.2 289,154 "/>
<polygon class="st0" points="149,200.7 149,247.3 149,247.3 149,294 195.7,294 195.7,247.3 195.7,247.3 195.7,200.7 "/>
</svg>
