
<svg version="1.1" id="Layer_1" xmlns="http://www.w3.org/2000/svg" xmlns:xlink="http://www.w3.org/1999/xlink" x="0px" y="0px"
	 viewBox="0 0 621 72" style="enable-background:new 0 0 621 72;" xml:space="preserve">
<g>
	<g>
		<g>
			<path d="M30.1,0C13.5,0,0,13.5,0,30.1V54h18V36h18v18H18v18h23.9C58.5,72,72,58.5,72,41.9V0H30.1z"/>
		</g>
		<g>
			<path d="M415.4,27H396V0h-18v0.6V72h17.7h0.3h19.8c18.7,0,25.2-9.9,25.2-22.6C441,35.6,433.4,27,415.4,27z M413.1,57.5H396V41.7
				v-0.2h17.1c5.8,0,9.2,3.2,9.2,7.9S419,57.5,413.1,57.5z"/>
			<rect x="108" y="18" width="18" height="540"/>
			<polygon points="162,0 126,0 126,18 162,18 162,72 180,72 180,0 171,0 			"/>
			<path d="M234,0c-19.9,0-36,16.1-36,36s16.1,36,36,36s36-16.1,36-36S253.9,0,234,0z M234,54c-9.9,0-18-8.1-18-18s8.1-18,18-18
				s18,8.1,18,18S243.9,54,234,54z"/>
			<polygon points="315.1,0 315,0 301.6,0 283.7,72 301.7,72 315.1,18 342,18 342,72 360,72 360,18 360,0 342,0 			"/>
		</g>
	</g>
	<path d="M520,39.6c-2.7-3-6.8-4.7-12.1-5.1V34c2.5-0.5,4.6-1.3,6.3-2.5c1.7-1.2,3.1-2.6,4.2-4.1c1.1-1.6,1.9-3.2,2.4-5
		c0.5-1.8,0.7-3.4,0.7-5c0-5.6-2.4-9.9-7.2-12.9c-4.8-3-12.6-4.4-23.4-4.4c-3.4,0-6.7,0.2-9.8,0.7c-3.1,0.5-6.1,1-8.8,1.7
		c-2.7,0.7-5.1,1.5-7.3,2.3c-2.1,0.8-3.9,1.7-5.3,2.5l7.1,13.1c0,0,0,0,0,0c0.2-0.1,3.1-1.8,8-3.2c0.2-0.1,0.4-0.1,0.6-0.2
		c1.7-0.4,3.4-0.7,5.2-1c2.6-0.5,5.2-0.7,7.8-0.7c0.1,0,0.1,0,0.2,0c0.2,0,0.4,0,0.6,0c0,0,0.1,0,0.1,0c1.8,0,3.7,0.2,5.6,0.4
		c1.8,0.3,3.3,0.7,4.6,1.2c2.6,1.1,3.9,2.8,3.9,5.3c0,2.1-1.1,3.9-3.4,5.4c-2.3,1.5-5.7,2.2-10.4,2.2H484v12.6h4
		c5.9,0,10.4,0.5,13.5,1.4c3.1,0.9,4.6,2.6,4.6,5c0,2.6-1.6,4.6-4.9,5.9c-3.3,1.4-7.4,2.1-12.2,2.1c-2.4,0-4.8-0.2-7.3-0.7
		c-2.4-0.5-4.8-1.1-7.1-1.8c-2.3-0.7-4.4-1.6-6.3-2.6c-1.9-1-3.6-2-5-3.1l-6.9,13.3c1.5,1.3,3.4,2.5,5.7,3.7c2.4,1.2,5,2.3,8,3.3
		c3,1,6.2,1.7,9.7,2.3c3.5,0.6,7.2,0.8,11.1,0.8c5.8,0,10.8-0.6,14.9-1.7c4.1-1.1,7.6-2.6,10.3-4.4c2.7-1.8,4.7-4,6-6.6
		c1.3-2.5,1.9-5.3,1.9-8.2C524.1,46.4,522.8,42.6,520,39.6z"/>
	<path d="M603,54V28.7c0-0.1,0-0.2,0-0.3v-5.6c-0.1-3.1-0.5-6-1.3-8.5c-0.9-3-2.4-5.5-4.5-7.6c-2.1-2.1-4.8-3.8-8.2-4.9
		c-3.4-1.2-7.5-1.7-12.3-1.7c-6.7,0-12.4,0.6-17.3,1.8c-4.9,1.2-9.1,2.6-12.8,4.3l4.3,14.2c2.6-1.2,5.7-2.4,9.5-3.6
		c3.8-1.2,8-1.8,12.7-1.8c4,0,6.9,0.8,9,2.3c1,0.8,1.8,1.8,2.3,3.1c0,0,0,0,0,0c0.6,1.2,0.7,3.8,0.7,3.8v6.1c-0.1,0-1.8-0.1-1.8-0.1
		l0,0c-2-0.1-3.8-0.3-5.3-0.4c-1.8-0.2-3.6-0.3-5.2-0.3c-4.7,0-8.9,0.4-12.8,1.3c-3.8,0.9-7.1,2.2-9.8,4c-2.7,1.8-4.8,4.1-6.2,6.9
		c-1.4,2.8-2.1,6.2-2.1,10.1c0,6.1,2,11,6.1,14.7c4,3.7,9.5,5.6,16.4,5.6c5.8,0,10.4-1,13.8-3.1c3.4-2.1,6-4.6,7.9-7.4h0.7l1.5,7.7
		l0.5,2.8V72H603h4.5H621V54H603z M585,49.1c0,0-0.1,0.3-0.5,0.9c0,0-0.1,0.1-0.1,0.1c-1,1.6-2.5,3.2-4.4,4.6
		c-2.2,1.6-5.5,2.4-9.9,2.4c-3.5,0-6-0.7-7.5-2.2c-1.5-1.4-2.3-3.4-2.3-6c0-1.6,0.4-2.9,1.2-4c0.8-1.1,1.9-2,3.3-2.7
		c1.4-0.7,2.9-1.2,4.7-1.5c1.7-0.3,3.5-0.5,5.2-0.5c2.1,0,4.1,0.1,5.9,0.3c0.3,0,0.7,0.1,1,0.1v0c0,0,0.1,0,0.2,0
		c1,0.1,1.8,0.3,2.5,0.4c0.2,0,0.5,0.1,0.7,0.1V49.1z"/>
</g>
</svg>
